<svg width="393" height="135" xmlns="http://www.w3.org/2000/svg">

 <g>
  <title>background</title>
  <rect fill="none" id="canvas_background" height="137" width="395" y="-1" x="-1"/>
 </g>
 <g>
  <title>Layer 1</title>
  <g id="svg_1">
   <path id="svg_2" d="m69.2,54l-30.9,-53l-38.3,32.3l11.3,64.9l14,10.9l0,-37.8c0,-7 -1.7,-24.9 -1.7,-34.4l9.1,8.6l36.9,86.9l0,-1.4c0.3,-0.8 36.8,-86.5 36.8,-86.5l9.1,-8.6c0,9.5 -1.7,27.4 -1.7,34.4l0,37.8l14,-10.9l11.3,-64.9l-38.5,-32.3l-31.4,54z"/>
   <path id="svg_3" d="m168,32.1l-20,69.2l15,0l4.6,-17.4l21.1,0l4.6,17.4l15.1,0l-20.1,-69.2l-20.3,0zm2.6,40.4c3.1,-11.6 5,-19 5.8,-22.3c0.7,-3.3 1.3,-6.2 1.8,-8.9c0.2,1.3 0.7,3.9 1.6,7.8c0.9,3.9 1.5,6.4 1.7,7.3l4.3,16l-15.2,0l0,0.1z"/>
   <path id="svg_4" d="m277.3,63.1l-24.7,0l0,11.3l10,0l0,15.8c-2.5,0.5 -5,0.8 -7.4,0.8c-4.6,0 -8.1,-2.1 -10.5,-6.2c-2.4,-4.1 -3.6,-10 -3.6,-17.8c0,-7.5 1.7,-13.4 5,-17.8c3.3,-4.4 7.9,-6.5 13.6,-6.5c4,0 8.3,1.1 12.8,3.4l4.8,-10.5c-5.9,-2.8 -12,-4.2 -18.5,-4.2c-10.4,0 -18.6,3.1 -24.4,9.4c-5.8,6.3 -8.7,14.9 -8.7,26c0,11.5 2.5,20.3 7.6,26.4c5.1,6.1 12.3,9.1 21.7,9.1c7.9,0 15.3,-1.3 22.4,-3.8l0,-35.4l-0.1,0z"/>
   <rect id="svg_5" height="68.9" width="14.2" y="32.4" x="304.8"/>
   <path id="svg_6" d="m361.4,67c0,-7.7 1.2,-13.7 3.7,-18c2.5,-4.3 5.9,-6.5 10.2,-6.5c2.2,0 4.3,0.4 6.1,1.2c1.9,0.8 3.7,1.7 5.3,2.7l5,-10.4c-3.1,-1.7 -6,-2.9 -8.7,-3.6c-2.7,-0.7 -5.5,-1 -8.5,-1c-9,0 -16,3.1 -21,9.4c-5,6.3 -7.6,15 -7.6,26.2c0,11.2 2.4,19.9 7.3,26c4.9,6.2 11.9,9.3 21,9.3c6.2,0 11.2,-1.1 15.2,-3.3l0,-11.5c-4.7,2.3 -9.2,3.5 -13.4,3.5c-9.7,0 -14.6,-8 -14.6,-24z"/>
   <path id="svg_7" d="m290,120.4l0,-0.1c1.3,-0.2 2.4,-0.6 3.2,-1.5c0.8,-0.8 1.2,-1.8 1.2,-3.1c0,-1.8 -0.9,-3.2 -2.7,-4c-1.8,-0.8 -4.7,-1.3 -8.7,-1.3l-8.8,0l0,21l10.6,0c3.2,0 5.7,-0.5 7.6,-1.6c1.9,-1.1 2.8,-2.6 2.8,-4.5c0,-1.4 -0.4,-2.4 -1.2,-3.2s-2.3,-1.4 -4,-1.7zm-9.9,-6.4l3.1,0c1.7,0 3,0.2 3.8,0.5c0.8,0.4 1.2,0.9 1.2,1.7c0,0.9 -0.4,1.5 -1.1,1.9c-0.7,0.4 -1.9,0.6 -3.5,0.6l-3.5,0l0,-4.7zm7.5,13c-0.8,0.5 -2,0.7 -3.7,0.7l-3.9,0l0,-5.5l3.7,0c3.3,0 5,0.9 5,2.6c0.1,1 -0.3,1.7 -1.1,2.2z"/>
   <path id="svg_8" d="m309,110.3l-10,21.1l6.5,0l2,-5l10.3,0l2,5l6.5,0l-10,-21.1l-7.3,0zm0.1,12.3c2,-4.8 3.2,-7.9 3.7,-9.1c0.1,0.3 0.3,0.8 0.5,1.4c0.2,0.6 1.3,3.2 3.2,7.7l-7.4,0z"/>
   <path id="svg_9" d="m351.6,120.3c0,1.1 0.1,3.1 0.3,5.8l-0.1,0l-12.3,-15.7l-7.6,0l0,21l5.4,0l0,-9.9c0,-1.2 -0.1,-3.2 -0.4,-6l0.2,0l12.3,15.9l7.6,0l0,-21l-5.4,0l0,9.9z"/>
   <polygon id="svg_10" points="388.7,110.4 382,110.4 374.4,117.5 372,120 372,110.4 366,110.4 366,131.4 372,131.4 372,123.9 374.6,122.5    382,131.4 388.8,131.4 378.8,119.7  "/>
  </g>
 </g>
</svg>